<svg xmlns="http://www.w3.org/2000/svg" width="17.667" height="17.667" viewBox="0 0 17.667 17.667">
  <g id="Grupo_11095" data-name="Grupo 11095" transform="translate(0 -63.5)">
    <g id="Grupo_10980" data-name="Grupo 10980" transform="translate(0 63.5)">
      <path id="Caminho_5018" data-name="Caminho 5018" d="M169.968,240.32a.85.85,0,0,1-.584-.227l-2.476-2.329a.744.744,0,0,1,0-1.1.863.863,0,0,1,1.167,0l1.892,1.78,5.194-4.885a.863.863,0,0,1,1.167,0,.744.744,0,0,1,0,1.1l-5.777,5.434a.85.85,0,0,1-.584.227" transform="translate(-162.785 -227.583)" fill="#00b26b"/>
      <path id="Caminho_5019" data-name="Caminho 5019" d="M8.833,17.667A8.835,8.835,0,0,1,5.395.694a8.835,8.835,0,0,1,6.877,16.278,8.779,8.779,0,0,1-3.439.694m0-16.06A7.227,7.227,0,1,0,16.06,8.833,7.235,7.235,0,0,0,8.833,1.606" transform="translate(0 0)" fill="#00b26b"/>
    </g>
  </g>
</svg>
